<svg id="Capa_1" data-name="Capa 1" xmlns="http://www.w3.org/2000/svg" xmlns:xlink="http://www.w3.org/1999/xlink" viewBox="0 0 207.25 18"><defs><style>.cls-1{fill:#61dafb;}.cls-2{fill:#fff;}.cls-3{fill:url(#Degradado_sin_nombre_3);}.cls-4{stroke:#fff;stroke-miterlimit:10;stroke-width:0.25px;fill:url(#Degradado_sin_nombre_2);}.cls-5{fill:#1572b6;}.cls-6{fill:#33a9dc;}.cls-7{fill:#ebebeb;}</style><linearGradient id="Degradado_sin_nombre_3" x1="2027.7" y1="-918.71" x2="2100.97" y2="-976.87" gradientTransform="matrix(0.25, 0, 0, -0.25, -269.85, -213.22)" gradientUnits="userSpaceOnUse"><stop offset="0" stop-color="#9013fe"/><stop offset="1" stop-color="#6610f2"/></linearGradient><linearGradient id="Degradado_sin_nombre_2" x1="2048.91" y1="-929.37" x2="2065.02" y2="-956.61" gradientTransform="matrix(0.25, 0, 0, -0.25, -269.47, -212.86)" gradientUnits="userSpaceOnUse"><stop offset="0" stop-color="#fff"/><stop offset="1" stop-color="#f1e5fc"/></linearGradient></defs><ellipse class="cls-1" cx="10.62" cy="9" rx="1.93" ry="1.84"/><path class="cls-1" d="M57.72,17c-.37-.13-.76-.25-1.17-.37.11-.38.19-.77.26-1.14.35-2.13,0-3.62-1.12-4.2A2.17,2.17,0,0,0,54.6,11c-1.19,0-2.7.84-4.22,2.24-1.53-1.4-3-2.24-4.23-2.24a2.13,2.13,0,0,0-1.08.26c-1.09.59-1.48,2.09-1.12,4.2.06.37.15.76.25,1.14-.41.12-.8.23-1.17.37-2.12.78-3.28,1.84-3.28,3s1.17,2.25,3.28,3c.37.13.76.25,1.17.37-.1.38-.19.77-.25,1.14-.36,2.13,0,3.62,1.12,4.2a2.13,2.13,0,0,0,1.08.26c1.21,0,2.72-.84,4.23-2.24,1.52,1.4,3,2.24,4.22,2.24a2.17,2.17,0,0,0,1.09-.26c1.08-.59,1.47-2.09,1.12-4.2-.07-.37-.15-.76-.26-1.14.41-.12.8-.23,1.17-.37,2.13-.78,3.28-1.84,3.28-3S59.85,17.75,57.72,17Zm-2.51-4.91c.7.39.94,1.58.65,3.27a9.34,9.34,0,0,1-.24,1.06,21.69,21.69,0,0,0-2.8-.4,25.44,25.44,0,0,0-1.76-2.09,6,6,0,0,1,3.56-2A1.25,1.25,0,0,1,55.21,12.06Zm-1.9,9.55c-.3.52-.66,1-1,1.55-.63,0-1.26.06-1.9.06s-1.29,0-1.9-.06a17.18,17.18,0,0,1-1-1.55c-.32-.53-.63-1.08-.9-1.61.27-.53.58-1.08.9-1.61s.66-1,1-1.55c.63,0,1.26-.06,1.9-.06s1.29,0,1.9.06a17.18,17.18,0,0,1,1,1.55c.32.53.63,1.08.9,1.61C53.92,20.53,53.63,21.06,53.31,21.61Zm1.41-.53a17.22,17.22,0,0,1,.65,1.66c-.58.13-1.19.22-1.84.3a9.23,9.23,0,0,0,.61-1C54.35,21.74,54.53,21.4,54.72,21.08Zm-4.34,4.36c-.41-.42-.8-.87-1.17-1.33.39,0,.78,0,1.17,0s.78,0,1.17,0C51.17,24.57,50.78,25,50.38,25.44ZM47.22,23c-.64-.08-1.26-.18-1.83-.31.18-.53.39-1.09.64-1.66.19.32.38.66.58,1S47,22.7,47.22,23ZM46,18.92a17.1,17.1,0,0,1-.64-1.66c.57-.13,1.19-.22,1.83-.3-.2.3-.42.62-.61,1Zm4.35-4.36c.4.42.79.87,1.17,1.33l-1.17,0-1.17,0C49.58,15.43,50,15,50.38,14.56Zm3.76,3.38-.61-1c.65.08,1.26.18,1.84.31-.19.53-.39,1.09-.65,1.66C54.53,18.6,54.35,18.26,54.14,17.94ZM44.9,15.33c-.29-1.69-.06-2.88.64-3.27a1.25,1.25,0,0,1,.59-.14,6.09,6.09,0,0,1,3.57,2A21.07,21.07,0,0,0,47.93,16a26.2,26.2,0,0,0-2.8.4C45,16,45,15.67,44.9,15.33ZM40.7,20c0-.76,1-1.56,2.67-2.16.34-.13.71-.24,1.08-.34a26.64,26.64,0,0,0,1,2.52,21.83,21.83,0,0,0-1,2.49C42.11,21.87,40.7,20.9,40.7,20Zm4.84,7.94c-.7-.39-.93-1.58-.64-3.27a9.23,9.23,0,0,1,.23-1.06,21.94,21.94,0,0,0,2.8.4A23.65,23.65,0,0,0,49.7,26.1a6.07,6.07,0,0,1-3.57,2A1.25,1.25,0,0,1,45.54,27.94Zm10.32-3.27c.29,1.69,0,2.88-.65,3.27a1.25,1.25,0,0,1-.59.14,6.07,6.07,0,0,1-3.56-2A22.48,22.48,0,0,0,52.82,24a25.84,25.84,0,0,0,2.8-.4C55.72,24,55.79,24.33,55.86,24.67Zm1.53-2.51c-.34.13-.72.24-1.09.34a22.2,22.2,0,0,0-1-2.52,20.14,20.14,0,0,0,1-2.49c2.34.64,3.75,1.61,3.75,2.51S59.07,21.56,57.39,22.16Z" transform="translate(-39.75 -11)"/><path class="cls-2" d="M120.71,26.39" transform="translate(-39.75 -11)"/><path class="cls-3" d="M228.32,13.09a2,2,0,0,1,2-2.09h12.28a2,2,0,0,1,2,2.09,11.15,11.15,0,0,0,.37,3.5c.36,1.11,1,1.81,1.95,1.9v1c-1,.09-1.59.79-1.95,1.9a11.15,11.15,0,0,0-.37,3.5,2,2,0,0,1-2,2.09H230.36a2,2,0,0,1-2-2.09,10.86,10.86,0,0,0-.37-3.5c-.36-1.11-1-1.81-1.95-1.9v-1c1-.09,1.59-.79,1.95-1.9A10.86,10.86,0,0,0,228.32,13.09Z" transform="translate(-39.75 -11)"/><path class="cls-4" d="M237,23.32c1.93,0,3.09-.9,3.09-2.4A2.1,2.1,0,0,0,238,18.85V18.8A1.92,1.92,0,0,0,239.61,17c0-1.29-1.05-2.12-2.66-2.12h-3.62v8.48Zm-2.14-7.52h1.89c1,0,1.61.44,1.61,1.24s-.68,1.32-1.91,1.32h-1.59Zm0,6.4V19.32h1.92c1.37,0,2.08.49,2.08,1.43s-.69,1.45-2,1.45Z" transform="translate(-39.75 -11)"/><path class="cls-5" d="M135.77,27.4,134,13h19l-1.73,14.4L143.51,29Z" transform="translate(-39.75 -11)"/><path class="cls-6" d="M143.47,27.75l6.28-1.3,1.47-12.3h-7.75Z" transform="translate(-39.75 -11)"/><path class="cls-2" d="M143.47,19.38h3.11l.21-1.78h-3.32V15.81h6l-.06.48-.58,4.88h-5.34Z" transform="translate(-39.75 -11)"/><path class="cls-7" d="M143.47,23.88h0l-2.64-.53-.17-1.41h-2.38l.33,2.77,4.86,1h0Z" transform="translate(-39.75 -11)"/><path class="cls-2" d="M146.41,21l-.29,2.37-2.65.53v1.84l4.87-1,0-.3.42-3.44Z" transform="translate(-39.75 -11)"/><path class="cls-7" d="M143.47,15.81V17.6h-5.8l0-.4-.11-.91-.06-.48Zm0,3.57v1.79h-2.64l-.05-.4-.11-.91-.06-.48Z" transform="translate(-39.75 -11)"/></svg>