<?xml version="1.0" encoding="utf-8"?>
<!-- Generator: Adobe Illustrator 25.2.1, SVG Export Plug-In . SVG Version: 6.00 Build 0)  -->
<svg version="1.1" id="Capa_1" xmlns="http://www.w3.org/2000/svg" xmlns:xlink="http://www.w3.org/1999/xlink" x="0px" y="0px"
	 viewBox="0 0 196.4 25.4" style="enable-background:new 0 0 196.4 25.4;" xml:space="preserve">
<style type="text/css">
	.st0{fill:#808080;}
	.st1{fill:#FFFFFF;}
	.st2{fill:#599636;}
	.st3{fill:#6CAC48;}
	.st4{fill:#C2BFBF;}
	.st5{fill:#8CC84B;}
</style>
<ellipse class="st0" cx="14.2" cy="12.5" rx="7.5" ry="7.5"/>
<path class="st1" d="M18.8,17.1c-0.4,0.1-0.6,0-0.8-0.5c-0.4-1.2-0.9-2.2-1.4-3.4c-0.1-0.2-0.1-0.3-0.2-0.5
	c-0.6,1.3-1.1,2.5-1.7,3.8c-0.2,0.5-0.4,0.7-0.8,0.5l2.1-4.9l-1.9-4.4c0.3-0.1,0.6-0.1,0.8,0.5c0.5,1.2,1,2.2,1.5,3.4
	c0.5-1.2,1-2.2,1.5-3.4c0.2-0.5,0.4-0.6,0.8-0.5l-0.8,1.7c-0.3,0.8-0.7,1.6-1,2.3c-0.1,0.2-0.1,0.5,0,0.7
	C17.4,14.1,18.1,15.6,18.8,17.1z M8.9,12.2c0.1-0.5,0.1-1,0.2-1.5c0.5-2.9,2.4-4.1,3.8-2.3c0.8,1.2,1.1,2.7,0.9,4.2H9.3
	c-0.1,3,1.2,4.8,2.8,3.9c0.6-0.4,1-1.2,1.1-2c0.1-0.5,0.2-0.6,0.5-0.4c0,1.1-0.4,2-1.1,2.8c-0.9,0.8-2.1,0.7-2.8-0.4
	c-0.1-0.1-0.1-0.2-0.2-0.3c-0.4-0.8-0.6-1.8-0.7-2.7c0-0.2,0-0.3-0.1-0.5S8.9,12.5,8.9,12.2z M9.3,12.1h4c0-2.2-0.8-3.7-1.9-3.7
	S9.4,9.8,9.3,12.1z"/>
<path class="st2" d="M183.7,4.8l0.6,0.8c0.1,0.1,0.3,0.3,0.4,0.4c0.5,0.3,1,0.7,1.4,1.1c1,0.9,1.7,1.9,2.1,3c0.3,0.6,0.4,1.3,0.5,2
	c0,2-1.1,4-3,5.2c-0.3,0.2-0.7,0.4-1.1,0.6c-0.2,0-0.3-0.1-0.4-0.2c-0.1-0.2-0.2-0.4-0.3-0.6s-0.1-0.5-0.1-0.7v-0.1
	C183.9,16.2,183.7,4.9,183.7,4.8z"/>
<path class="st3" d="M183.7,4.8L183.7,4.8c-0.1,0.2-0.1,0.3-0.3,0.4s-0.3,0.3-0.5,0.4c-1,0.6-1.9,1.4-2.6,2.2
	c-0.9,1.1-1.4,2.4-1.5,3.7c0,0.9,0.2,1.7,0.4,2.6c0.6,1.3,1.7,2.4,3,3.2c0.3,0.2,0.7,0.4,1.1,0.6c0.1,0,0.1-0.1,0.1-0.1
	c0.1-0.1,0.1-0.2,0.1-0.3l0.2-1.2V4.8z"/>
<path class="st4" d="M184.4,18.3c0-0.2,0.1-0.4,0.3-0.5c-0.1,0-0.3-0.1-0.3-0.2c-0.1-0.1-0.1-0.2-0.2-0.3c-0.2-0.3-0.7-1.1-0.7-1.1
	V16c0.1,0.1,0.2,0.2,0.3,0.4c0,0.4-0.1,0.7-0.2,1.1c0,0.2-0.1,0.3-0.2,0.4c0,0,0,0,0,0.1c0.2,0.4,0.3,0.9,0.4,1.3v0.2
	c0,0.1,0,0.2,0.1,0.2c0,0,0,0,0.1,0s0.2,0,0.3,0.1c0,0,0.1,0,0.1-0.1l0,0l0.2-0.3v-0.8C184.4,18.6,184.4,18.5,184.4,18.3L184.4,18.3
	z"/>
<path class="st5" d="M95.8,5.8c0.4-0.2,0.9-0.2,1.3,0l6.2,3.2c0.4,0.1,0.6,0.5,0.6,1v6.3c-0.2,0.4-0.5,0.8-0.8,1l-6.2,3.1
	c-0.4,0.2-0.9,0.2-1.4,0l-1.8-1c-0.1-0.1-0.2-0.1-0.4-0.2c0.1-0.1,0.2-0.1,0.3-0.2c0.2-0.1,0.5-0.2,0.7-0.3c0.1,0,0.1,0,0.2,0
	l1.6,0.8c0.1,0,0.2,0,0.3-0.1l6-3.1c0.1,0,0.1-0.2,0.1-0.2v-6c0-0.1-0.1-0.2-0.1-0.2l-6.1-3.1c-0.1,0-0.2,0-0.2,0L90,9.9
	c-0.1,0-0.1,0.1-0.1,0.2v6.3c0,0.1,0,0.2,0.1,0.2l1.7,0.8c0.3,0.2,0.7,0.2,1.1,0.1c0.3-0.1,0.5-0.4,0.5-0.7v-6.3
	c0-0.1,0.1-0.2,0.2-0.2h0.7c0.1,0,0.2,0.1,0.2,0.2l0,0v6.3c0,0.6-0.3,1.2-0.8,1.4c-0.7,0.3-1.5,0.3-2.2-0.1l-1.7-0.9
	c-0.4-0.1-0.7-0.6-0.7-1.1V10c0-0.5,0.3-0.9,0.7-1L95.8,5.8z M97.4,10.2c0.9-0.1,1.8,0,2.7,0.4c0.6,0.2,1,0.8,1,1.6
	c0,0.1-0.1,0.1-0.2,0.1h-0.8c-0.1,0-0.2-0.1-0.2-0.2c-0.1-0.3-0.3-0.6-0.6-0.7c-0.5-0.2-1-0.2-1.6-0.2c-0.4,0-0.8,0.1-1.1,0.3
	c-0.2,0.1-0.3,0.4-0.2,0.7l0,0c0.1,0.2,0.3,0.2,0.5,0.3c1.1,0.3,2.2,0.2,3.3,0.6c0.4,0.1,0.8,0.4,1,0.8c0.2,0.6,0.1,1.3-0.3,1.7
	c-0.4,0.2-0.9,0.4-1.4,0.5c-0.7,0.1-1.4,0.2-2.1,0.1c-0.6,0-1.3-0.2-1.8-0.6c-0.4-0.3-0.6-0.8-0.6-1.4c0-0.1,0.1-0.1,0.2-0.1H96
	c0.1,0,0.2,0.1,0.2,0.2c0,0.3,0.2,0.6,0.4,0.8c0.6,0.2,1.2,0.3,1.8,0.3c0.5,0,1-0.1,1.5-0.3c0.2-0.1,0.3-0.4,0.2-0.7
	c-0.1-0.2-0.3-0.3-0.5-0.4c-1.1-0.3-2.2-0.2-3.3-0.5c-0.4-0.1-0.8-0.4-1-0.8c-0.2-0.6-0.1-1.3,0.4-1.7
	C96.2,10.4,96.8,10.2,97.4,10.2L97.4,10.2z"/>
</svg>
