<svg id="Capa_1" data-name="Capa 1" xmlns="http://www.w3.org/2000/svg" viewBox="0 0 196.44 25.4"><defs><style>.cls-1{fill:gray;}.cls-2{fill:#fff;}.cls-3{fill:#599636;}.cls-4{fill:#6cac48;}.cls-5{fill:#c2bfbf;}.cls-6{fill:#8cc84b;}</style></defs><ellipse class="cls-1" cx="9.72" cy="11.3" rx="9.72" ry="8.1"/><path class="cls-2" d="M68.14,23.92c-.47.16-.76,0-1-.55-.58-1.25-1.23-2.43-1.85-3.63a5.13,5.13,0,0,0-.27-.5c-.73,1.41-1.47,2.75-2.16,4.15-.25.5-.51.71-1,.53l2.76-5.26L62.1,13.91c.43-.13.74-.06,1,.5.6,1.25,1.26,2.43,1.91,3.68.65-1.25,1.3-2.43,1.92-3.66.25-.5.51-.68,1-.5l-1,1.88c-.45.84-.88,1.68-1.34,2.49a.66.66,0,0,0,0,.76C66.43,20.65,67.27,22.27,68.14,23.92ZM55.3,18.61c.07-.52.13-1.07.22-1.57.61-3.13,3.13-4.43,4.86-2.48a6.29,6.29,0,0,1,1.21,4.53H55.9c-.09,3.24,1.56,5.19,3.64,4.2a3,3,0,0,0,1.38-2.19c.11-.52.29-.6.63-.45a4.53,4.53,0,0,1-1.37,3,2.62,2.62,0,0,1-3.9-.71A6,6,0,0,1,55.41,20c0-.18-.06-.34-.08-.52S55.3,18.9,55.3,18.61Zm.6-.16h5.17c0-2.34-1.06-4-2.47-4S56,16,55.9,18.45Z" transform="translate(-52.56 -7.6)"/><path class="cls-3" d="M242.13,7.67l.81,1.27a3.64,3.64,0,0,0,.6.64,18,18,0,0,1,1.89,1.8,14.61,14.61,0,0,1,2.94,5,10.47,10.47,0,0,1,.63,3.39,11.06,11.06,0,0,1-4.15,8.83,12.35,12.35,0,0,1-1.48,1.06.64.64,0,0,1-.53-.34,2.79,2.79,0,0,1-.41-1,4.13,4.13,0,0,1-.13-1.26v-.19S242,7.77,242.13,7.67Z" transform="translate(-52.56 -7.6)"/><path class="cls-4" d="M242.12,7.63c0-.06-.07,0-.1,0a1.1,1.1,0,0,1-.28.76A3.87,3.87,0,0,1,241,9a13.93,13.93,0,0,0-3.53,3.79,13.4,13.4,0,0,0-2,6.2,17.81,17.81,0,0,0,.59,4.37,13.29,13.29,0,0,0,4.12,5.47c.46.37,1,.71,1.47,1.05.14,0,.16-.11.19-.2a2.39,2.39,0,0,0,.15-.54l.33-2.07Z" transform="translate(-52.56 -7.6)"/><path class="cls-5" d="M243,30.49a1.7,1.7,0,0,1,.41-.84,1,1,0,0,1-.46-.36,2.55,2.55,0,0,1-.25-.46c-.23-.58-.91-1.78-.91-1.78v-.36a4.48,4.48,0,0,1,.47.6,11.81,11.81,0,0,1-.3,1.86,1.5,1.5,0,0,1-.26.72.2.2,0,0,0,0,.1,15,15,0,0,1,.54,2.24v.28a.26.26,0,0,0,.19.37,1.53,1.53,0,0,1,.41.14.11.11,0,0,0,.12-.12l.22-.46V31.15a1.55,1.55,0,0,1-.2-.65Z" transform="translate(-52.56 -7.6)"/><path class="cls-6" d="M143.55,12.44a2.54,2.54,0,0,1,1.88,0L154.1,16a1.29,1.29,0,0,1,.9,1.11v7.09a3.35,3.35,0,0,1-1.16,1.13l-8.61,3.52a2.48,2.48,0,0,1-1.91,0l-2.58-1.08a1.82,1.82,0,0,1-.5-.26c.11-.11.31-.12.47-.17a7.18,7.18,0,0,0,1-.34.3.3,0,0,1,.26,0l2.2.92a.58.58,0,0,0,.45-.07l8.45-3.46c.1,0,.1-.2.1-.2v-7a.23.23,0,0,0-.18-.22l-8.53-3.48a.38.38,0,0,0-.33,0l-8.52,3.49c-.12,0-.2.12-.18.22v7a.19.19,0,0,0,.16.19l2.35.94a2.54,2.54,0,0,0,1.47.14c.44-.12.73-.41.73-.74v-7c0-.1.13-.19.27-.18h.94a.21.21,0,0,1,.23.22v7a1.7,1.7,0,0,1-1.13,1.6,4.53,4.53,0,0,1-3.1-.06l-2.42-1A1.31,1.31,0,0,1,134,24.1v-7a1.31,1.31,0,0,1,.93-1.13Zm2.31,4.88a9.07,9.07,0,0,1,3.72.41A2,2,0,0,1,151,19.49a.27.27,0,0,1-.29.14h-1.09a.25.25,0,0,1-.26-.2,1.29,1.29,0,0,0-.79-.83,6.33,6.33,0,0,0-2.18-.22,3.78,3.78,0,0,0-1.55.28.6.6,0,0,0-.33.8c.11.2.44.26.7.32,1.5.29,3.1.26,4.58.63a2.11,2.11,0,0,1,1.42.92,1.55,1.55,0,0,1-.45,1.87,4.18,4.18,0,0,1-1.94.75,12.47,12.47,0,0,1-2.93.09,5.72,5.72,0,0,1-2.57-.7,1.74,1.74,0,0,1-.87-1.54c0-.1.14-.16.27-.16h1.09a.25.25,0,0,1,.26.19,1.16,1.16,0,0,0,.62.84,6.37,6.37,0,0,0,2.52.33,4.4,4.4,0,0,0,2.07-.37.67.67,0,0,0,.31-.79c-.09-.23-.43-.34-.72-.42-1.49-.34-3.1-.22-4.58-.6a2.18,2.18,0,0,1-1.4-.89,1.47,1.47,0,0,1,.5-1.9,5,5,0,0,1,2.51-.73Z" transform="translate(-52.56 -7.6)"/></svg>