<?xml version="1.0" encoding="utf-8"?>
<!-- Generator: Adobe Illustrator 25.2.1, SVG Export Plug-In . SVG Version: 6.00 Build 0)  -->
<svg version="1.1" id="Capa_1" xmlns="http://www.w3.org/2000/svg" xmlns:xlink="http://www.w3.org/1999/xlink" x="0px"
	y="0px" viewBox="0 0 207.2 18" style="enable-background:new 0 0 207.2 18;" xml:space="preserve">
	<style type="text/css">
		.st0 {
			fill: #61DAFB;
		}

		.st1 {
			fill: #FFFFFF;
		}

		.st2 {
			fill: url(#SVGID_1_);
		}

		.st3 {
			fill: url(#SVGID_2_);
			stroke: #FFFFFF;
			stroke-width: 0.25;
			stroke-miterlimit: 10;
		}

		.st4 {
			fill: #1572B6;
		}

		.st5 {
			fill: #33A9DC;
		}

		.st6 {
			fill: #EBEBEB;
		}
	</style>
	<ellipse class="st0" cx="13" cy="9.3" rx="1.4" ry="1.5" />
	<path class="st0" d="M18.1,6.8c-0.3-0.1-0.5-0.2-0.8-0.3c0.1-0.3,0.1-0.6,0.2-1c0.2-1.8,0-3-0.8-3.5c-0.2-0.2-0.5-0.2-0.8-0.2
	c-0.8,0-1.9,0.7-3,1.9c-1.1-1.2-2.1-1.9-3-1.9C9.7,1.8,9.5,1.9,9.2,2c-0.8,0.5-1,1.7-0.8,3.5c0,0.3,0.1,0.6,0.2,1
	C8.3,6.6,8,6.7,7.8,6.8C6.3,7.5,5.5,8.4,5.5,9.3s0.8,1.9,2.3,2.5C8,11.9,8.3,12,8.6,12.1c-0.1,0.3-0.1,0.6-0.2,1
	c-0.3,1.8,0,3,0.8,3.5c0.2,0.2,0.5,0.2,0.8,0.2c0.9,0,1.9-0.7,3-1.9c1.1,1.2,2.1,1.9,3,1.9c0.3,0,0.5-0.1,0.8-0.2
	c0.8-0.5,1-1.7,0.8-3.5c0-0.3-0.1-0.6-0.2-1c0.3-0.1,0.6-0.2,0.8-0.3c1.5-0.7,2.3-1.5,2.3-2.5S19.7,7.5,18.1,6.8z M16.4,2.7
	c0.5,0.3,0.7,1.3,0.5,2.7c0,0.3-0.1,0.6-0.2,0.9c-0.7-0.2-1.3-0.3-2-0.3c-0.4-0.6-0.8-1.2-1.2-1.7C14.1,3.4,15,2.8,16,2.6
	C16.1,2.6,16.2,2.6,16.4,2.7L16.4,2.7z M15,10.7c-0.2,0.4-0.5,0.8-0.7,1.3c-0.4,0-0.9,0.1-1.3,0.1s-0.9,0-1.3-0.1
	c-0.3-0.4-0.5-0.8-0.7-1.3c-0.2-0.4-0.4-0.9-0.6-1.3c0.2-0.4,0.4-0.9,0.6-1.3c0.2-0.4,0.5-0.8,0.7-1.3c0.4,0,0.9-0.1,1.3-0.1
	s0.9,0,1.3,0.1C14.6,7.1,14.8,7.6,15,8c0.2,0.4,0.4,0.9,0.6,1.3C15.5,9.8,15.3,10.2,15,10.7L15,10.7z M16,10.3
	c0.2,0.5,0.3,0.9,0.5,1.4c-0.4,0.1-0.8,0.2-1.3,0.3c0.2-0.3,0.3-0.5,0.4-0.8C15.8,10.8,15.9,10.5,16,10.3L16,10.3z M13,13.9
	c-0.3-0.4-0.6-0.7-0.8-1.1c0.3,0,0.6,0,0.8,0c0.3,0,0.6,0,0.8,0C13.5,13.2,13.2,13.5,13,13.9L13,13.9z M10.7,11.9
	c-0.5-0.1-0.9-0.2-1.3-0.3c0.1-0.4,0.3-0.9,0.5-1.4c0.1,0.3,0.3,0.6,0.4,0.8C10.4,11.3,10.6,11.6,10.7,11.9z M9.9,8.4
	C9.7,8,9.6,7.5,9.4,7.1c0.4-0.1,0.8-0.2,1.3-0.3c-0.1,0.3-0.3,0.5-0.4,0.8L9.9,8.4z M12.9,4.8c0.3,0.4,0.6,0.7,0.8,1.1h-0.8h-0.8
	C12.4,5.5,12.7,5.2,12.9,4.8L12.9,4.8z M15.6,7.6l-0.4-0.8c0.5,0.1,0.9,0.2,1.3,0.3C16.3,7.5,16.2,8,16,8.4
	C15.9,8.2,15.8,7.9,15.6,7.6L15.6,7.6z M9.1,5.4C8.9,4,9.1,3,9.6,2.7C9.7,2.6,9.8,2.6,10,2.6c1,0.2,1.9,0.8,2.5,1.7
	C12,4.8,11.6,5.4,11.2,6c-0.7,0.1-1.3,0.2-2,0.3C9.2,6,9.2,5.7,9.1,5.4z M6.1,9.3C6.1,8.7,6.8,8,8,7.5c0.2-0.1,0.5-0.2,0.8-0.3
	C9,8,9.2,8.7,9.5,9.4C9.2,10,9,10.7,8.8,11.4C7.1,10.9,6.1,10.1,6.1,9.3z M9.6,16c-0.5-0.3-0.7-1.3-0.5-2.7c0-0.3,0.1-0.6,0.2-0.9
	c0.7,0.2,1.3,0.3,2,0.3c0.4,0.6,0.8,1.2,1.2,1.7c-0.7,0.9-1.5,1.5-2.5,1.7C9.8,16.1,9.7,16.1,9.6,16z M16.8,13.2
	c0.2,1.4,0,2.4-0.5,2.7c-0.1,0.1-0.3,0.1-0.4,0.1c-1-0.2-1.9-0.8-2.5-1.7c0.4-0.5,0.9-1.1,1.2-1.7c0.7-0.1,1.3-0.2,2-0.3
	C16.7,12.7,16.8,13,16.8,13.2z M17.9,11.2c-0.2,0.1-0.5,0.2-0.8,0.3c-0.2-0.7-0.4-1.4-0.7-2.1c0.3-0.7,0.5-1.4,0.7-2.1
	c1.7,0.5,2.6,1.3,2.6,2.1S19.1,10.6,17.9,11.2z" />
	<path class="st1" d="M81,15.4" />
	<linearGradient id="SVGID_1_" gradientUnits="userSpaceOnUse" x1="2141.7385" y1="1400.6005" x2="2201.3643"
		y2="1447.9298" gradientTransform="matrix(0.25 0 0 0.25 -343.35 -341.72)">
		<stop offset="0" style="stop-color:#9013FE" />
		<stop offset="1" style="stop-color:#6610F2" />
	</linearGradient>
	<path class="st2" d="M186.9,3.5c0-1,0.6-1.9,1.4-2c0,0,0,0,0.1,0h8.8c0.8,0,1.4,0.8,1.4,1.9c0,0,0,0.1,0,0.1c0,1.1,0,2.2,0.3,3.3
	c0.3,1,0.7,1.7,1.4,1.8v0.9c-0.7,0.1-1.1,0.7-1.4,1.8c-0.2,1.1-0.3,2.2-0.3,3.3c0,1-0.6,1.9-1.4,2c0,0,0,0-0.1,0h-8.8
	c-0.8,0-1.4-0.8-1.4-1.9c0,0,0-0.1,0-0.1c0-1.1,0-2.2-0.3-3.3c-0.3-1-0.7-1.7-1.4-1.8V8.5c0.7-0.1,1.1-0.7,1.4-1.8
	C186.9,5.7,187,4.6,186.9,3.5z" />
	<linearGradient id="SVGID_2_" gradientUnits="userSpaceOnUse" x1="2148.1331" y1="1413.2169" x2="2162.2258"
		y2="1437.0458" gradientTransform="matrix(0.25 0 0 0.25 -342.97 -341.36)">
		<stop offset="0" style="stop-color:#FFFFFF" />
		<stop offset="1" style="stop-color:#F1E5FC" />
	</linearGradient>
	<path class="st3" d="M193.2,13.1c1.4,0,2.2-0.8,2.2-2.3c0-1.1-0.7-1.9-1.5-1.9v0c0.6-0.1,1.1-0.8,1.2-1.7c0-1.2-0.8-2-1.9-2h-2.6v8
	L193.2,13.1z M191.6,6h3.4c0.7,0,1.2,0.4,1.2,1.2s-0.5,1.2-1.4,1.2h-1.1V6z M191.6,12V9.3h3.4c1,0,1.5,0.5,1.5,1.3
	c0,0.9-0.5,1.4-1.4,1.4L191.6,12z" />
	<path class="st4" d="M95.4,15L94.2,1.5h32L105.2,15l-4.9,1.5L95.4,15z" />
	<path class="st5" d="M100.2,15.3l4-1.2l0.9-11.5h-4.9V15.3z" />
	<path class="st1" d="M100.2,7.5h2l0.1-1.7h-2.1V4.1h3.8l0,0.5l-0.4,4.6h-3.4L100.2,7.5z" />
	<path class="st6" d="M100.2,11.7L100.2,11.7l-1.7-0.5l-0.1-1.3H97l0.2,2.6l3.1,0.9l0,0V11.7z" />
	<path class="st1" d="M102.1,9l-0.2,2.2l-1.7,0.5v1.7l3.1-0.9v-0.3l0.3-3.2h302.1z" />
	<path class="st6"
		d="M100.2,4.1v1.7h-3.7V5.4l-0.1-0.9l0-0.4L100.2,4.1z M100.2,7.5v1.7h-1.7l0-0.4l-0.1-0.9l0-0.4L100.2,7.5z" />
</svg>