<?xml version="1.0" encoding="utf-8"?>
<!-- Generator: Adobe Illustrator 25.2.1, SVG Export Plug-In . SVG Version: 6.00 Build 0)  -->
<svg version="1.1" id="Capa_1" xmlns="http://www.w3.org/2000/svg" xmlns:xlink="http://www.w3.org/1999/xlink" x="0px"
	y="0px" viewBox="0 0 220.2 24" style="enable-background:new 0 0 220.2 24;" xml:space="preserve">
	<style type="text/css">
		.st0 {
			fill: #61DAFB;
		}

		.st1 {
			fill: #FFFFFF;
		}

		.st2 {
			fill: #808080;
		}

		.st3 {
			fill: #599636;
		}

		.st4 {
			fill: #6CAC48;
		}

		.st5 {
			fill: #C2BFBF;
		}

		.st6 {
			fill: #8CC84B;
		}

		.st7 {
			fill: #261300;
		}

		.st8 {
			fill: #FF7C00;
		}

		.st9 {
			fill-rule: evenodd;
			clip-rule: evenodd;
			fill: #FFFFFF;
		}

		.st10 {
			fill: url(#path-2_1_);
		}

		.st11 {
			filter: url(#Adobe_OpacityMaskFilter);
		}

		.st12 {
			mask: url(#mask-3_3_);
		}

		.st13 {
			fill: #FFA000;
		}

		.st14 {
			fill: #F57C00;
		}

		.st15 {
			fill: #FFCA28;
		}

		.st16 {
			fill: #FFFFFF;
			fill-opacity: 0.2;
		}

		.st17 {
			opacity: 0.2;
			fill: #A52714;
			enable-background: new;
		}

		.st18 {
			filter: url(#Adobe_OpacityMaskFilter_1_);
		}

		.st19 {
			mask: url(#mask-3_2_);
			fill: none;
		}

		.st20 {
			filter: url(#Adobe_OpacityMaskFilter_2_);
		}

		.st21 {
			mask: url(#mask-3_1_);
			fill: url(#_Path_5_1_);
		}
	</style>
	<g>
		<ellipse class="st0" cx="20.1" cy="11.9" rx="1.4" ry="1.5" />
		<path class="st0" d="M25.3,9.4c-0.3-0.1-0.5-0.2-0.8-0.3c0.1-0.3,0.1-0.6,0.2-1c0.2-1.8,0-3-0.8-3.5c-0.2-0.2-0.5-0.2-0.8-0.2
		c-0.8,0-1.9,0.7-3,1.9c-1.1-1.2-2.1-1.9-3-1.9c-0.3,0-0.5,0.1-0.8,0.2c-0.8,0.5-1,1.7-0.8,3.5c0,0.3,0.1,0.6,0.2,1
		c-0.3,0.1-0.6,0.2-0.8,0.3c-1.5,0.7-2.3,1.5-2.3,2.5s0.8,1.9,2.3,2.5c0.3,0.1,0.5,0.2,0.8,0.3c-0.1,0.3-0.1,0.6-0.2,1
		c-0.3,1.8,0,3,0.8,3.5c0.2,0.2,0.5,0.2,0.8,0.2c0.9,0,1.9-0.7,3-1.9c1.1,1.2,2.1,1.9,3,1.9c0.3,0,0.5-0.1,0.8-0.2
		c0.8-0.5,1-1.7,0.8-3.5c0-0.3-0.1-0.6-0.2-1c0.3-0.1,0.6-0.2,0.8-0.3c1.5-0.7,2.3-1.5,2.3-2.5S26.8,10,25.3,9.4z M23.6,5.3
		C24.1,5.6,24.2,6.6,24,8c0,0.3-0.1,0.6-0.2,0.9c-0.7-0.2-1.3-0.3-2-0.3C21.4,8,21,7.4,20.6,6.9c0.6-0.9,1.5-1.5,2.5-1.7
		C23.3,5.1,23.4,5.2,23.6,5.3L23.6,5.3z M22.2,13.3c-0.2,0.4-0.5,0.8-0.7,1.3c-0.4,0-0.9,0.1-1.3,0.1s-0.9,0-1.3-0.1
		c-0.3-0.4-0.5-0.8-0.7-1.3c-0.2-0.4-0.4-0.9-0.6-1.3c0.2-0.4,0.4-0.9,0.6-1.3c0.2-0.4,0.5-0.8,0.7-1.3c0.4,0,0.9-0.1,1.3-0.1
		s0.9,0,1.3,0.1c0.3,0.4,0.5,0.8,0.7,1.3c0.2,0.4,0.4,0.9,0.6,1.3C22.7,12.3,22.5,12.8,22.2,13.3L22.2,13.3z M23.2,12.8
		c0.2,0.5,0.3,0.9,0.5,1.4c-0.4,0.1-0.8,0.2-1.3,0.3c0.2-0.3,0.3-0.5,0.4-0.8C23,13.3,23.1,13.1,23.2,12.8L23.2,12.8z M20.2,16.5
		c-0.3-0.4-0.6-0.7-0.8-1.1c0.3,0,0.6,0,0.8,0c0.3,0,0.6,0,0.8,0C20.7,15.7,20.4,16.1,20.2,16.5L20.2,16.5z M17.9,14.4
		c-0.5-0.1-0.9-0.2-1.3-0.3c0.1-0.4,0.3-0.9,0.5-1.4c0.1,0.3,0.3,0.6,0.4,0.8C17.6,13.9,17.8,14.1,17.9,14.4z M17.1,11
		c-0.2-0.5-0.3-0.9-0.5-1.4c0.4-0.1,0.8-0.2,1.3-0.3c-0.1,0.3-0.3,0.5-0.4,0.8L17.1,11z M20.1,7.3c0.3,0.4,0.6,0.7,0.8,1.1h-0.8
		h-0.8C19.6,8.1,19.9,7.7,20.1,7.3L20.1,7.3z M22.8,10.2l-0.4-0.8c0.5,0.1,0.9,0.2,1.3,0.3c-0.1,0.4-0.3,0.9-0.5,1.4
		C23.1,10.7,23,10.4,22.8,10.2L22.8,10.2z M16.3,8c-0.2-1.4,0-2.4,0.5-2.7c0.1-0.1,0.3-0.1,0.4-0.1c1,0.2,1.9,0.8,2.5,1.7
		c-0.4,0.5-0.9,1.1-1.2,1.7c-0.7,0.1-1.3,0.2-2,0.3C16.4,8.5,16.4,8.3,16.3,8z M13.3,11.9c0-0.6,0.7-1.3,1.9-1.8
		c0.2-0.1,0.5-0.2,0.8-0.3c0.2,0.7,0.4,1.4,0.7,2.1c-0.3,0.7-0.5,1.4-0.7,2.1C14.3,13.4,13.3,12.6,13.3,11.9z M16.7,18.5
		c-0.5-0.3-0.7-1.3-0.5-2.7c0-0.3,0.1-0.6,0.2-0.9c0.7,0.2,1.3,0.3,2,0.3c0.4,0.6,0.8,1.2,1.2,1.7c-0.7,0.9-1.5,1.5-2.5,1.7
		C17,18.7,16.9,18.6,16.7,18.5z M24,15.8c0.2,1.4,0,2.4-0.5,2.7c-0.1,0.1-0.3,0.1-0.4,0.1c-1-0.2-1.9-0.8-2.5-1.7
		c0.4-0.5,0.9-1.1,1.2-1.7c0.7-0.1,1.3-0.2,2-0.3C23.9,15.2,24,15.5,24,15.8z M25.1,13.7c-0.2,0.1-0.5,0.2-0.8,0.3
		c-0.2-0.7-0.4-1.4-0.7-2.1c0.3-0.7,0.5-1.4,0.7-2.1c1.7,0.5,2.6,1.3,2.6,2.1C27,12.6,26.3,13.2,25.1,13.7z" />
	</g>
	<path class="st1" d="M86,18.4" />
	<g>
		<ellipse class="st2" cx="143.7" cy="11.5" rx="7.5" ry="7.5" />
		<path class="st1" d="M149.1,16.1c-0.4,0.2-0.7,0-1-0.5c-0.6-1.1-1.2-2.1-1.8-3.2c-0.1-0.1-0.1-0.3-0.2-0.4c-0.7,1.2-1.4,2.4-2,3.6
		c-0.2,0.4-0.5,0.6-0.9,0.5l2.6-4.6l-2.4-4.2c0.4-0.2,0.8,0,1,0.4c0.6,1.1,1.2,2.1,1.8,3.2c0.6-1.1,1.2-2.1,1.8-3.2
		c0.2-0.4,0.5-0.6,0.9-0.4L148,8.9c-0.4,0.7-0.8,1.5-1.3,2.2c-0.1,0.2-0.1,0.5,0,0.7C147.5,13.2,148.3,14.7,149.1,16.1z M136.9,11.4
		c0.1-0.5,0.1-0.9,0.2-1.4c0.6-2.7,3-3.9,4.6-2.2c1,1,1.2,2.4,1.2,4h-5.4c-0.1,2.8,1.5,4.5,3.5,3.7c0.7-0.4,1.2-1.1,1.3-1.9
		c0.1-0.4,0.3-0.5,0.6-0.4c-0.1,1-0.6,2-1.3,2.6c-1.2,0.9-2.9,0.6-3.8-0.6c-0.5-0.8-0.8-1.6-0.8-2.6c0-0.2,0-0.3-0.1-0.5L136.9,11.4
		z M137.5,11.2h4.9c0-2-1-3.5-2.3-3.5C138.6,7.7,137.6,9.1,137.5,11.2L137.5,11.2z" />
	</g>
	<g>
		<path class="st3" d="M173,4l0.7,0.7c0.2,0.1,0.3,0.3,0.5,0.4c0.5,0.3,1.1,0.7,1.6,1.1c1.1,0.8,1.9,1.8,2.4,2.9
		c0.3,0.6,0.5,1.3,0.5,2c0,2.1-1.3,4-3.4,5.2c-0.4,0.2-0.8,0.4-1.2,0.6c-0.2,0-0.3-0.1-0.4-0.2c-0.2-0.2-0.3-0.4-0.3-0.6
		c-0.1-0.2-0.1-0.5-0.1-0.7v-0.1C173.1,15.3,172.9,4.1,173,4z" />
		<path class="st4" d="M173,4C173,4,172.9,4,173,4c-0.1,0.2-0.2,0.3-0.3,0.4c-0.2,0.1-0.4,0.3-0.6,0.4C171,5.4,170,6.1,169.2,7
		c-1,1.1-1.5,2.4-1.7,3.7c0,0.9,0.2,1.7,0.5,2.6c0.7,1.3,1.9,2.4,3.4,3.2c0.4,0.2,0.8,0.4,1.2,0.6c0.1,0,0.1-0.1,0.2-0.1
		c0.1-0.1,0.1-0.2,0.1-0.3l0.3-1.2L173,4z" />
		<path class="st5"
			d="M173.8,17.5c0.1-0.2,0.2-0.4,0.3-0.5c-0.2,0-0.3-0.1-0.4-0.2c-0.1-0.1-0.1-0.2-0.2-0.3
		c-0.2-0.3-0.3-0.7-0.4-1.1v-0.1v0.3c0,0.4-0.1,0.7-0.2,1.1c0,0.2-0.1,0.3-0.2,0.4c0,0,0,0,0,0.1c0.2,0.4,0.8,1.3,0.8,1.3v0.2
		c0,0-0.5,0.2-0.2,0.2c0.1,0,0.2,0,0.3,0.1c0,0,0.1,0,0.1-0.1l0,0l-0.3-0.3v-0.7C173.6,17.8,173.7,17.7,173.8,17.5L173.8,17.5z" />
	</g>
	<path class="st6" d="M199.8,3.2c0.4-0.2,0.9-0.2,1.3,0l6.2,3.2c0.4,0.2,0.6,0.6,0.6,1V14c0,0.4-0.3,0.8-0.6,1l-5.7,3
	c-0.4,0.2-0.9,0.2-1.3,0l-1.7-0.9c-0.1-0.1-0.2-0.1-0.3-0.2c0.1-0.1,0.2-0.1,0.3-0.1c0.2-0.1,0.5-0.2,0.7-0.3c0.1,0,0.1,0,0.2,0
	L201,17c0.1,0.1,0.2,0,0.3-0.1l5.6-2.9c0.1,0,0.1-0.1,0.1-0.2V7.4c0-0.1,0-0.2-0.1-0.2L200.5,4c-0.1,0-0.2,0-0.2,0l-6.2,3.2
	c-0.1,0-0.1,0.1-0.1,0.2v6.2c0,0.1,0,0.1,0.1,0.2l1.7,0.8c0.3,0.2,0.7,0.2,1,0.1c0.3-0.1,0.5-0.4,0.5-0.7V7.8c0-0.1,0.1-0.2,0.2-0.2
	l0,0h0.7c0.1,0,0.2,0.1,0.2,0.2l0,0v6.4c0,0.6-0.3,1.1-0.8,1.4c-0.7,0.3-1.5,0.3-2.2-0.1l-1.7-0.9c-0.4-0.2-0.7-0.6-0.7-1V7.4
	c0-0.4,0.3-0.8,0.7-1L199.8,3.2z M201.5,7.6c0.9-0.1,1.8,0,2.6,0.4c0.6,0.3,1,0.9,1,1.6c0,0.1-0.1,0.1-0.2,0.1h-0.7
	c-0.1,0-0.2-0.1-0.2-0.2c-0.1-0.3-0.3-0.6-0.6-0.8c-0.5-0.2-1-0.2-1.5-0.2c-0.4,0-0.8,0.1-1.1,0.3c-0.2,0.2-0.3,0.5-0.2,0.7
	s0.3,0.2,0.5,0.3c1.1,0.3,2.2,0.2,3.3,0.6c0.5,0.1,0.8,0.4,1,0.8c0.2,0.6,0.1,1.2-0.3,1.7c-0.4,0.4-0.9,0.6-1.4,0.7
	c-0.7,0.1-1.4,0.2-2.1,0.1c-0.7,0-1.3-0.3-1.9-0.7c-0.4-0.3-0.6-0.9-0.6-1.4c0-0.1,0.1-0.2,0.2-0.1l0,0h0.7c0.1,0,0.2,0.1,0.2,0.2
	c0,0.3,0.2,0.6,0.4,0.8c0.6,0.3,1.2,0.4,1.8,0.3c0.5,0,1-0.1,1.5-0.3c0.2-0.2,0.3-0.5,0.2-0.7s-0.3-0.3-0.5-0.4
	c-1.1-0.3-2.2-0.2-3.3-0.6c-0.4-0.1-0.8-0.4-1-0.8c-0.2-0.6-0.1-1.3,0.4-1.7C200.2,7.8,200.8,7.6,201.5,7.6L201.5,7.6z" />
	<g>
		<path class="st7" d="M45.9,5.6h32.8v12.8H45.9V5.6z" />
		<path class="st8" d="M45.3,5v14h34V5H45.3z M45.9,5.6h32.8v12.8H45.9V5.6z M50.2,12.9l-0.5,1.8c0,0,0,0.1-0.1,0.1h-0.9
		c-0.1,0-0.1,0-0.1-0.1l1.7-5.9c0-0.1,0-0.2,0.1-0.5c0,0,0-0.1,0-0.1h3.2c0,0,0.1,0,0.1,0.1l1.9,6.5c0,0,0,0.1,0,0.1h-1
		c0,0-0.1,0-0.1-0.1L52,12.9L50.2,12.9z M51.8,12l-0.7-2.8h0C51,9.8,50.6,11,50.4,12h31.8z M54.4,8.6C54.4,8.2,54.7,8,55,8
		c0.4,0,0.6,0.2,0.6,0.6c0,0.4-0.3,0.6-0.6,0.6C54.7,9.2,54.4,9,54.4,8.6z M54.5,10C54.5,9.9,54.5,9.9,54.5,10l1-0.1
		c0,0,0.1,0,0.1,0.1v4.7c0,0,0,0.1-0.1,0.1h-0.9c-0.1,0-0.1,0-0.1-0.1L54.5,10L54.5,10z" />
	</g>
	<g>
		<g>
			<path id="path-2_9_" class="st9" d="M88.7,8.6c0-0.1-0.1-0.2-0.2-0.2c-0.1,0-0.2,0-0.3,0.1l-1.6,1.6l-1.3-2.4
			c-0.1-0.1-0.2-0.2-0.3-0.2c-0.1,0-0.2,0.1-0.3,0.2L84,9l-1.8-3.3c-0.1-0.3-0.5-0.2-0.6,0.1L80,16.7l4.5,2.5c0.3,0.2,0.6,0.2,0.9,0
			l4.6-2.5L88.7,8.6z" />
		</g>
		<desc>Created with Sketch.</desc>
		<g id="Page-1_1_">
			<g id="styleguide_1_" transform="translate(-664.000000, -1272.000000)">
				<g id="Group-16_1_" transform="translate(40.000000, 1187.000000)">
					<g id="Group-9_1_" transform="translate(114.000000, 0.000000)">
						<g id="Group-26_1_" transform="translate(405.000000, 1.000000)">
							<g id="logo_lockup_firebase_vertical_1_" transform="translate(105.193370, 83.977901)">
								<g id="_Group__1_">
									<g id="_Path_5_3_">

										<linearGradient id="path-2_1_" gradientUnits="userSpaceOnUse" x1="3.3664" y1="22.066" x2="3.4618"
											y2="21.9966" gradientTransform="matrix(109.5018 0 0 -150.0389 -289.1882 3318.7039)">
											<stop offset="0" style="stop-color:#FFFFFF;stop-opacity:0.1" />
											<stop offset="1" style="stop-color:#FFFFFF;stop-opacity:0" />
										</linearGradient>
										<path id="path-2_8_" class="st10" d="M88.5,8.7c0-0.1-0.1-0.2-0.2-0.2s-0.2,0-0.3,0.1l-1.6,1.6l-1.3-2.4
										c-0.1-0.1-0.2-0.2-0.3-0.2c-0.1,0-0.2,0.1-0.3,0.2L83.8,9l-1.8-3.3c-0.1-0.3-0.5-0.2-0.6,0.1l-1.7,10.8l4.5,2.5
										c0.3,0.2,0.6,0.2,0.9,0l4.6-2.5L88.5,8.7z" />
									</g>
									<defs>
										<filter id="Adobe_OpacityMaskFilter" filterUnits="userSpaceOnUse" x="79.2" y="5.6" width="11.2"
											height="14.1">
											<feColorMatrix type="matrix" values="1 0 0 0 0  0 1 0 0 0  0 0 1 0 0  0 0 0 1 0" />
										</filter>
									</defs>
									<mask maskUnits="userSpaceOnUse" x="79.2" y="5.6" width="11.2" height="14.1" id="mask-3_3_">
										<g class="st11">
											<path id="path-2_4_" class="st9" d="M88.5,8.7c0-0.1-0.1-0.2-0.2-0.2s-0.2,0-0.3,0.1l-1.6,1.6l-1.3-2.4
											c-0.1-0.1-0.2-0.2-0.3-0.2c-0.1,0-0.2,0.1-0.3,0.2L83.8,9l-1.8-3.3c-0.1-0.3-0.5-0.2-0.6,0.1l-1.7,10.8l4.5,2.5
											c0.3,0.2,0.6,0.2,0.9,0l4.6-2.5L88.5,8.7z" />
										</g>
									</mask>
									<g id="_Group_2_1_" class="st12">
										<g transform="translate(-6.346125, -0.160154)">
											<g id="_Group_3_1_">
												<path id="_Path__1_" class="st13" d="M86.1,16.8L87.8,6c0-0.3,0.4-0.4,0.6-0.1l1.8,3.3l0.7-1.3c0.1-0.1,0.2-0.2,0.3-0.2
												c0.1,0,0.2,0.1,0.3,0.2l4.7,9H86.1z" />
												<g id="_Group_4_1_" transform="translate(0.000000, 30.119310)">
													<g style="opacity:0.12;enable-background:new    ;">

														<image style="overflow:visible;" width="87" height="112" id="Bitmap_1_"
															xlink:href="50EA0A21.png"
															transform="matrix(7.715148e-02 0 0 7.742745e-02 85.5606 -21.629)">
														</image>
													</g>
													<polygon id="Shape_1_" class="st14" points="92,-17.5 90.2,-20.9 86.1,-13.3 												" />
												</g>
											</g>
											<g id="_Group_5_1_" transform="translate(3.421930, 23.299844)">
												<g style="opacity:0.2;enable-background:new    ;">

													<image style="overflow:visible;" width="140" height="155" id="_Image__1_"
														xlink:href="50EA0A23.png"
														transform="matrix(7.734431e-02 0 0 7.762097e-02 82.4634 -15.4345)">
													</image>
												</g>
												<g id="_Group_6_1_" transform="translate(3.421930, 7.387755)">
													<path id="_Path_2_1_" class="st15" d="M89.3-13.8l-1.3-8c0-0.1-0.1-0.2-0.2-0.2c-0.1,0-0.2,0-0.3,0.1l-8.2,8.2l4.5,2.5
													c0.3,0.2,0.6,0.2,0.9,0L89.3-13.8z" />
												</g>
											</g>
											<path id="_Compound_Path__1_" class="st16" d="M94.8,8.8c0-0.1-0.1-0.2-0.2-0.2c-0.1,0-0.2,0-0.3,0.1l-1.6,1.6l-1.3-2.4
											c-0.1-0.1-0.2-0.2-0.3-0.2c-0.1,0-0.2,0.1-0.3,0.2l-0.7,1.3l-1.8-3.3c-0.1-0.3-0.5-0.2-0.6,0.1l-1.7,10.8h0l0,0l0,0
											l6.5-6.5l1.6-1.6c0.1-0.1,0.2-0.1,0.3-0.1S94.8,8.8,94.8,8.8l1.3,8l0,0L94.8,8.8z M86.2,16.8l1.7-10.7
											c0-0.3,0.4-0.4,0.6-0.1l1.8,3.3l0.7-1.3c0.1-0.1,0.2-0.2,0.3-0.2c0.1,0,0.2,0.1,0.3,0.2l1.2,2.4L86.2,16.8z" />
											<path id="_Path_3_1_" class="st17" d="M91.6,19.3c-0.3,0.2-0.6,0.2-0.9,0l-4.5-2.5l0,0.1l4.5,2.5
											C91,19.5,91.3,19.5,91.6,19.3l4.6-2.5l0-0.1L91.6,19.3z" />
										</g>
									</g>
									<defs>
										<filter id="Adobe_OpacityMaskFilter_1_" filterUnits="userSpaceOnUse" x="77.3" y="5" width="15"
											height="15">
											<feColorMatrix type="matrix" values="1 0 0 0 0  0 1 0 0 0  0 0 1 0 0  0 0 0 1 0" />
										</filter>
									</defs>
									<mask maskUnits="userSpaceOnUse" x="77.3" y="5" width="15" height="15" id="mask-3_2_">
										<g class="st18">
											<path id="path-2_3_" class="st9" d="M88.5,8.7c0-0.1-0.1-0.2-0.2-0.2s-0.2,0-0.3,0.1l-1.6,1.6l-1.3-2.4
											c-0.1-0.1-0.2-0.2-0.3-0.2c-0.1,0-0.2,0.1-0.3,0.2L83.8,9l-1.8-3.3c-0.1-0.3-0.5-0.2-0.6,0.1l-1.7,10.8l4.5,2.5
											c0.3,0.2,0.6,0.2,0.9,0l4.6-2.5L88.5,8.7z" />
										</g>
									</mask>
									<polygon id="_Path_4_1_" class="st19" points="77.3,5 92.3,5 92.3,20 77.3,20 								" />
									<defs>
										<filter id="Adobe_OpacityMaskFilter_2_" filterUnits="userSpaceOnUse" x="79.8" y="5.6" width="10"
											height="13.8">
											<feColorMatrix type="matrix" values="1 0 0 0 0  0 1 0 0 0  0 0 1 0 0  0 0 0 1 0" />
										</filter>
									</defs>
									<mask maskUnits="userSpaceOnUse" x="79.8" y="5.6" width="10" height="13.8" id="mask-3_1_">
										<g class="st20">
											<path id="path-2_2_" class="st9" d="M88.5,8.7c0-0.1-0.1-0.2-0.2-0.2s-0.2,0-0.3,0.1l-1.6,1.6l-1.3-2.4
											c-0.1-0.1-0.2-0.2-0.3-0.2c-0.1,0-0.2,0.1-0.3,0.2L83.8,9l-1.8-3.3c-0.1-0.3-0.5-0.2-0.6,0.1l-1.7,10.8l4.5,2.5
											c0.3,0.2,0.6,0.2,0.9,0l4.6-2.5L88.5,8.7z" />
										</g>
									</mask>

									<linearGradient id="_Path_5_1_" gradientUnits="userSpaceOnUse" x1="3.3664" y1="22.066" x2="3.4618"
										y2="21.9966" gradientTransform="matrix(109.5018 0 0 -150.0389 -289.1882 3318.7039)">
										<stop offset="0" style="stop-color:#FFFFFF;stop-opacity:0.1" />
										<stop offset="1" style="stop-color:#FFFFFF;stop-opacity:0" />
									</linearGradient>
									<path id="_Path_5_2_" class="st21" d="M88.5,8.7c0-0.1-0.1-0.2-0.2-0.2s-0.2,0-0.3,0.1l-1.6,1.6l-1.3-2.4
									c-0.1-0.1-0.2-0.2-0.3-0.2c-0.1,0-0.2,0.1-0.3,0.2L83.8,9l-1.8-3.3c-0.1-0.3-0.5-0.2-0.6,0.1l-1.7,10.8l4.5,2.5
									c0.3,0.2,0.6,0.2,0.9,0l4.6-2.5L88.5,8.7z" />
								</g>
							</g>
						</g>
					</g>
				</g>
			</g>
		</g>
	</g>
</svg>