<svg id="Capa_1" data-name="Capa 1" xmlns="http://www.w3.org/2000/svg" viewBox="0 0 210.44 18"><defs><style>.cls-1{fill:#fff;}.cls-2{fill:#1572b6;}.cls-3{fill:#33a9dc;}.cls-4{fill:#ebebeb;}.cls-5{fill:#e44d26;}.cls-6{fill:#f16529;}.cls-7{fill:#f0db4f;}.cls-8{fill:#323330;}</style></defs><path class="cls-1" d="M120.71,26.39" transform="translate(-44.56 -12)"/><path class="cls-2" d="M135.77,27.4,134,13h19l-1.73,14.4L143.51,29Z" transform="translate(-44.56 -12)"/><path class="cls-3" d="M143.47,27.75l6.28-1.3,1.47-12.3h-7.75Z" transform="translate(-44.56 -12)"/><path class="cls-1" d="M143.47,19.38h3.11l.21-1.78h-3.32V15.81h6l-.06.48-.58,4.88h-5.34Z" transform="translate(-44.56 -12)"/><path class="cls-4" d="M143.47,23.88h0l-2.64-.53-.17-1.41h-2.38l.33,2.77,4.86,1h0Z" transform="translate(-44.56 -12)"/><path class="cls-1" d="M146.41,21l-.29,2.37-2.65.53v1.84l4.87-1,0-.3.42-3.44Z" transform="translate(-44.56 -12)"/><path class="cls-4" d="M143.47,15.81V17.6h-5.8l0-.4-.11-.91-.06-.48Zm0,3.57v1.79h-2.64l-.05-.4-.11-.91-.06-.48Z" transform="translate(-44.56 -12)"/><path class="cls-5" d="M46.42,25.5,44.56,12H65L63.14,25.5,54.77,27Z" transform="translate(-44.56 -12)"/><path class="cls-6" d="M54.87,25.83l6.76-1.21,1.59-11.54H54.87Z" transform="translate(-44.56 -12)"/><path class="cls-4" d="M54.87,18H51.5l-.23-1.69h3.6V14.65H48.39l.06.45.64,4.6h5.78Zm0,4.34h0L52,21.86l-.19-1.32H49.26l.35,2.6,5.25.94h0Z" transform="translate(-44.56 -12)"/><path class="cls-1" d="M54.68,18V19.7h3.21l-.31,2.18-2.9.51v1.75L60,23.19l0-.29.61-4.43.06-.45h-6Zm0-3.37v1.68H61L61,16l.12-.85.06-.45Z" transform="translate(-44.56 -12)"/><path class="cls-7" d="M233,12h22V30H233Z" transform="translate(-44.56 -12)"/><path class="cls-8" d="M253.15,25.73c-.16-.83-.81-1.52-2.76-2.16-.67-.25-1.42-.44-1.65-.85a.78.78,0,0,1,0-.53c.15-.48.85-.63,1.4-.49a1.46,1.46,0,0,1,.89.68l1.62-.85a4.17,4.17,0,0,0-.53-.58,3.55,3.55,0,0,0-2.6-.77l-.65.07a3.09,3.09,0,0,0-1.56.75,2.09,2.09,0,0,0,.52,3.36c1.25.77,3.09.94,3.32,1.66.23.88-.79,1.17-1.8,1.06a2.34,2.34,0,0,1-1.61-1l-1.67.79a3.09,3.09,0,0,0,.75.84c1.59,1.32,5.59,1.26,6.3-.75A2,2,0,0,0,253.15,25.73Zm-8.23-5.38h-2.06v4.36a5.7,5.7,0,0,1-.13,2c-.3.51-1.08.45-1.44.35a1.66,1.66,0,0,1-.76-.65,1.41,1.41,0,0,0-.11-.15l-1.68.84a3,3,0,0,0,1.21,1.14,4.84,4.84,0,0,0,2.95.29,2.55,2.55,0,0,0,1.66-1.06,4.41,4.41,0,0,0,.37-2.52C244.93,23.45,244.92,21.9,244.92,20.35Z" transform="translate(-44.56 -12)"/></svg>