<?xml version="1.0" encoding="utf-8"?>
<!-- Generator: Adobe Illustrator 25.2.1, SVG Export Plug-In . SVG Version: 6.00 Build 0)  -->
<svg version="1.1" id="Capa_1" xmlns="http://www.w3.org/2000/svg" xmlns:xlink="http://www.w3.org/1999/xlink" x="0px"
	y="0px" viewBox="0 0 210.4 18" style="enable-background:new 0 0 210.4 18;" xml:space="preserve">
	<style type="text/css">
		.st0 {
			fill: #FFFFFF;
		}

		.st1 {
			fill: #1572B6;
		}

		.st2 {
			fill: #33A9DC;
		}

		.st3 {
			fill: #EBEBEB;
		}

		.st4 {
			fill: #F0DB4F;
		}

		.st5 {
			fill: #323330;
		}

		.st6 {
			fill: #E44D26;
		}

		.st7 {
			fill: #F16529;
		}
	</style>
	<path class="st0" d="M76.1,14.4" />
	<g>
		<path class="st1" d="M96,16.1L94.9,2.4h32.2L106,16.1l-5,1.5C101,17.6,96,16.1,96,16.1z" />
		<path class="st2" d="M101,16.4l4.1-1.2l1-11.7h-5C101,3.5,101,16.4,101,16.4z" />
		<path class="st0" d="M101,8.5h2l0.1-1.7h301V5.1h3.8l0,0.5l-0.4,4.6h301C101,10.1,101,8.5,101,8.5z" />
		<path class="st3" d="M101,12.8L101,12.8l-1.7-0.5L99.2,11h-1.5l0.2,2.6l3.1,1l0,0V12.8z" />
		<path class="st0" d="M102.9,10.1l-0.2,2.3l-1.7,0.5v1.7l3.1-1l0-0.3l0.3-3.3h302.9z" />
		<path class="st3" d="M101,5.1v1.7h-3.7l0-0.4l-0.1-0.9l0-0.5C97.1,5.1,101,5.1,101,5.1z M101,8.5v1.7h-1.7l0-0.4l-0.1-0.9l0-0.5
		h301z" />
	</g>
	<g>
		<path class="st4" d="M185.5,2.4h32v14.2h-12V2.4z" />
		<path class="st5" d="M196.5,13.2c-0.1-0.6-0.4-1.2-1.5-1.7c-0.4-0.2-0.8-0.3-0.9-0.7c0-0.2,0-0.3,0-0.4c0.1-0.4,0.5-0.5,0.8-0.4
		c0.2,0.1,0.4,0.3,0.5,0.5c0.5-0.4,0.5-0.4,0.9-0.7c-0.1-0.2-0.2-0.4-0.3-0.5c-0.3-0.4-0.7-0.6-1.4-0.6l-0.4,0.1
		c-0.3,0.1-0.7,0.3-0.9,0.6c-0.6,0.8-0.4,2.1,0.3,2.7c0.7,0.6,1.7,0.7,1.8,1.3c0.1,0.7-0.4,0.9-1,0.8c-0.4-0.1-0.6-0.3-0.9-0.8
		c-0.4,0.3-0.4,0.3-0.9,0.6c0.1,0.3,0.2,0.4,0.4,0.7c0.9,1,3,1,3.4-0.6C196.5,14.1,196.6,13.8,196.5,13.2z M192,8.9h-1.1l0,3.4
		c0,0.7,0,1.4-0.1,1.6c-0.2,0.4-0.6,0.4-0.8,0.3c-0.2-0.1-0.3-0.3-0.4-0.5c0-0.1-0.1-0.1-0.1-0.1l-0.9,0.7c0.2,0.4,0.4,0.7,0.7,0.9
		c0.4,0.3,1,0.4,1.6,0.2c0.4-0.1,0.7-0.4,0.9-0.8c0.3-0.6,0.2-1.2,0.2-2C192,11.4,192,10.1,192,8.9z" />
	</g>
	<g>
		<path class="st6" d="M16.7,15.4L15.5,1.7h32.2l-1.1,13.7l-5,1.5L16.7,15.4z" />
		<path class="st7" d="M21.7,15.8l4.1-1.2l1-11.7h-5V15.8z" />
		<path class="st3" d="M21.7,7.9h-2l-0.1-1.7h2.2V4.5h-3.8l0,0.5l0.4,4.6h3.4V7.9z M21.7,12.3L21.7,12.3l-1.7-0.5l-0.1-1.3h-1.5
		l0.2,2.6l3.1,1l0,0V12.3z" />
		<path class="st0" d="M21.7,7.9v1.7h3.9l-0.2,2.2l-1.7,0.5V14l3.1-1l0-0.3l0.4-4.4l0-0.5h-0.4H21.7z M21.7,4.5v1.7h3.7l0-0.4
		l0.1-0.9l0-0.5H21.7z" />
	</g>
</svg>